<svg xmlns="http://www.w3.org/2000/svg" viewBox="0 0 64 64" role="img" aria-label="Valentine heart letter favicon">
  <defs>
    <linearGradient id="bg" x1="12" y1="8" x2="52" y2="58" gradientUnits="userSpaceOnUse">
      <stop offset="0" stop-color="#fff1f5"/>
      <stop offset="1" stop-color="#fecdd3"/>
    </linearGradient>
    <linearGradient id="heart" x1="19" y1="18" x2="45" y2="46" gradientUnits="userSpaceOnUse">
      <stop offset="0" stop-color="#fb7185"/>
      <stop offset="1" stop-color="#e11d48"/>
    </linearGradient>
  </defs>
  <rect width="64" height="64" rx="14" fill="url(#bg)"/>
  <path d="M14 25.5c0-2.49 2.01-4.5 4.5-4.5h27c2.49 0 4.5 2.01 4.5 4.5v19c0 2.49-2.01 4.5-4.5 4.5h-27c-2.49 0-4.5-2.01-4.5-4.5v-19Z" fill="#fff7ed"/>
  <path d="m16 25 16 12 16-12" fill="none" stroke="#fda4af" stroke-width="4" stroke-linecap="round" stroke-linejoin="round"/>
  <path d="M32 44 16.8 27.8" fill="none" stroke="#fecdd3" stroke-width="3" stroke-linecap="round"/>
  <path d="m32 44 15.2-16.2" fill="none" stroke="#fecdd3" stroke-width="3" stroke-linecap="round"/>
  <path d="M32 26.3c-2.9-5.2-10.5-3.6-10.5 2.8 0 5.7 7.1 10.1 10.5 13.4 3.4-3.3 10.5-7.7 10.5-13.4 0-6.4-7.6-8-10.5-2.8Z" fill="url(#heart)"/>
  <path d="M26.8 28.6c1.7-1.4 3.8-.6 5.2 1.4 1.3-2 3.5-2.8 5.2-1.4" fill="none" stroke="#fff1f2" stroke-width="2" stroke-linecap="round"/>
</svg>
